<?xml version="1.0" encoding="utf-8"?>
<!-- Generator: Adobe Illustrator 16.0.2, SVG Export Plug-In . SVG Version: 6.00 Build 0)  -->
<!DOCTYPE svg PUBLIC "-//W3C//DTD SVG 1.1//EN" "http://www.w3.org/Graphics/SVG/1.1/DTD/svg11.dtd">
<svg version="1.1" id="Layer_1" xmlns="http://www.w3.org/2000/svg" xmlns:xlink="http://www.w3.org/1999/xlink" x="0px" y="0px"
	 width="463.477px" height="187.491px" viewBox="518.602 196.097 463.477 187.491"
	 enable-background="new 518.602 196.097 463.477 187.491" xml:space="preserve">
<g id="_x23_00a7d0ff">
	<path fill="#00A7D0" d="M535.762,209.286c0.737-0.257,1.52-0.357,2.297-0.354c9.589,0.009,19.179-0.007,28.768,0.006
		c1.762,0.021,3.557,0.82,4.578,2.289c0.821,1.149,1.093,2.59,1.077,3.979c-0.006,8.057-0.003,16.111,0,24.168
		c0.016,1.594-0.422,3.252-1.544,4.426c-1.128,1.199-2.811,1.753-4.435,1.728c-9.685-0.018-19.371,0.031-29.056-0.024
		c-2.827-0.049-5.277-2.486-5.329-5.316c-0.037-8.534-0.009-17.065-0.012-25.599C532.085,212.29,533.525,209.996,535.762,209.286z"
		/>
	<path fill="#00A7D0" d="M578.713,223.77c21.825-0.002,43.65,0.003,65.474-0.002c3.668-0.081,7.378,0.575,10.709,2.144
		c3.799,1.768,7.007,4.772,8.983,8.47c1.737,3.214,2.597,6.87,2.659,10.51c0,24.767,0,49.534,0,74.301
		c-0.016,2.465,0.115,4.953-0.349,7.387c-0.765,4.668-3.056,9.133-6.653,12.244c-3.86,3.396-9.021,5.084-14.117,5.157
		c-25.281,0-50.562,0-75.84,0c-2.346-0.015-4.705,0.107-7.027-0.296c-4.93-0.746-9.657-3.188-12.844-7.066
		c-3.34-3.973-4.879-9.223-4.875-14.361c0-23.498,0-46.998,0-70.499c9.375-0.003,18.75,0.003,28.123-0.003
		c1.701-0.009,3.447-0.703,4.508-2.065c0.945-1.173,1.272-2.719,1.248-4.199C578.71,238.25,578.713,231.01,578.713,223.77
		 M588.883,244.31c-1.721,1.239-2.63,3.383-2.639,5.472c-0.003,11.116,0.003,22.235-0.003,33.35
		c-0.037,2.029,0.74,4.127,2.331,5.438c1.502,1.276,3.533,1.689,5.458,1.692c10.876-0.003,21.75,0,32.628,0
		c-0.016,10.595,0.037,21.192-0.027,31.79c-8.492-0.042-16.983-0.005-25.474-0.021c0.002-5.022-0.006-10.048,0.006-15.07
		c-0.004-1.117,0.085-2.294-0.422-3.322c-0.841-1.816-2.64-3.019-4.527-3.539c-2.591-0.691-5.546-0.32-7.714,1.321
		c-1.349,1.004-2.303,2.61-2.251,4.323c-0.01,7.551,0.003,15.104-0.006,22.656c-0.027,2.027,0.755,4.126,2.353,5.43
		c1.507,1.267,3.542,1.669,5.465,1.667c17.937-0.009,35.874,0.002,53.811-0.007c1.683-0.024,3.42-0.389,4.812-1.379
		c1.728-1.208,2.694-3.328,2.694-5.414c-0.008-15.086,0-30.172-0.003-45.262c-0.042-1.927-0.912-3.86-2.434-5.062
		c-1.429-1.126-3.282-1.545-5.066-1.57c-15.579-0.018-31.157,0.024-46.733-0.021c0.052-6.818-0.027-13.637,0.04-20.455
		c13.101,0.059,26.202-0.024,39.303,0.043c-0.03,2.077-0.037,4.16-0.006,6.237c0.012,1.223,0.542,2.401,1.371,3.288
		c2.49,2.661,6.769,3.114,9.986,1.603c1.888-0.881,3.537-2.698,3.539-4.873c0.01-4.077-0.012-8.155,0.006-12.233
		c0.086-1.658-0.284-3.37-1.278-4.725c-1.334-1.897-3.71-2.741-5.956-2.778c-18.032-0.012-36.063,0.003-54.091-0.009
		C592.245,242.856,590.368,243.227,588.883,244.31z"/>
</g>
<g id="_x23_ffffffff">
	<path fill="#FFFFFF" d="M588.883,244.31c1.484-1.083,3.362-1.453,5.17-1.429c18.028,0.012,36.06-0.003,54.091,0.009
		c2.246,0.037,4.622,0.88,5.956,2.778c0.994,1.355,1.364,3.067,1.278,4.725c-0.018,4.078,0.003,8.156-0.006,12.233
		c-0.002,2.175-1.651,3.992-3.539,4.873c-3.217,1.511-7.497,1.058-9.986-1.603c-0.829-0.887-1.358-2.065-1.371-3.288
		c-0.031-2.077-0.024-4.16,0.006-6.237c-13.101-0.067-26.202,0.015-39.303-0.043c-0.067,6.818,0.012,13.637-0.04,20.455
		c15.576,0.045,31.154,0.003,46.733,0.021c1.784,0.024,3.637,0.444,5.066,1.57c1.522,1.202,2.392,3.135,2.434,5.062
		c0.003,15.09-0.005,30.176,0.003,45.262c0,2.086-0.966,4.206-2.694,5.414c-1.392,0.99-3.129,1.354-4.812,1.379
		c-17.937,0.009-35.874-0.002-53.811,0.007c-1.923,0.002-3.958-0.4-5.465-1.667c-1.597-1.304-2.38-3.402-2.353-5.43
		c0.009-7.553-0.003-15.105,0.006-22.656c-0.052-1.713,0.902-3.319,2.251-4.323c2.168-1.642,5.124-2.013,7.714-1.321
		c1.887,0.521,3.686,1.723,4.527,3.539c0.508,1.028,0.418,2.205,0.422,3.322c-0.012,5.022-0.004,10.048-0.006,15.07
		c8.491,0.017,16.982-0.021,25.474,0.021c0.064-10.598,0.012-21.194,0.027-31.79c-10.877,0-21.751-0.003-32.628,0
		c-1.925-0.003-3.956-0.417-5.458-1.692c-1.59-1.311-2.368-3.409-2.331-5.438c0.006-11.115,0-22.234,0.003-33.35
		C586.253,247.692,587.162,245.548,588.883,244.31z"/>
</g>
<path fill="#1F3992" stroke="#1F3992" stroke-width="2" stroke-miterlimit="10" d="M679.746,254.128
	c3.236-0.184,6.494-0.021,9.739-0.08c0.438,0.006,1.15-0.021,1.18,0.584c0.083,3.38,0.025,6.766,0.028,10.147
	c0.134,0.743-0.655,0.929-1.218,0.862c-3.163-0.03-6.329,0.043-9.488-0.033c-0.606,0.023-0.667-0.695-0.646-1.135
	c0.006-3.068,0.006-6.136,0-9.201C679.403,254.902,679.232,254.227,679.746,254.128z"/>
<path fill="#1F3992" stroke="#1F3992" stroke-width="2" stroke-miterlimit="10" d="M922.885,254.4
	c0.191-0.477,0.811-0.293,1.211-0.354c3.16,0.037,6.326-0.046,9.486,0.039c0.598,0.037,0.547,0.762,0.568,1.19
	c-0.016,9.886,0.01,19.775-0.012,29.665c3.363-3.992,8.254-6.708,13.479-7.188c5.277-0.486,10.982,0.544,15.121,4.047
	c3.561,2.916,5.377,7.408,6.09,11.853c0.654,3.793,0.465,7.652,0.494,11.482c0,9.789-0.004,19.577,0.004,29.365
	c-0.006,0.431,0.006,1.15-0.596,1.152c-3.268,0.076-6.537,0.016-9.805,0.027c-0.541,0.104-1.061-0.29-0.953-0.865
	c-0.035-11.984,0.033-23.965-0.031-35.947c-0.129-3.227-0.791-6.748-3.209-9.082c-2.336-2.288-5.809-2.808-8.943-2.63
	c-4.699,0.198-9.135,2.976-11.605,6.928c-0.096,13.584,0,27.177-0.045,40.762c0.066,0.498-0.338,0.902-0.834,0.831
	c-3.27,0.01-6.541,0.028-9.809-0.013c-0.654,0.07-0.752-0.676-0.713-1.152c0.01-25.795,0.004-51.593,0.006-77.391
	C922.811,256.215,922.691,255.291,922.885,254.4z"/>
<path fill="#1F3992" stroke="#1F3992" stroke-width="2" stroke-miterlimit="10" d="M769.253,265.975
	c-0.079-0.551,0.492-0.813,0.957-0.752c3.163-0.013,6.329-0.016,9.495,0c0.445-0.064,0.947,0.239,0.908,0.734
	c0.046,4.239,0.004,8.479,0.019,12.718c3.254,0.012,6.506-0.024,9.761,0.012c0.6-0.079,0.813,0.569,0.752,1.059
	c-0.018,2.346,0.049,4.695-0.031,7.041c0.025,0.511-0.553,0.701-0.965,0.64c-3.174,0.015-6.344,0-9.517,0.003
	c-0.003,11.198,0.003,22.396-0.003,33.599c0.023,1.446,0.178,2.988,1,4.224c0.988,1.425,2.805,2.024,4.484,1.942
	c1.266-0.004,2.465-0.44,3.691-0.695c0.618,0.185,0.551,0.912,0.703,1.417c0.35,2.099,0.876,4.167,1.15,6.274
	c-0.379,0.669-1.189,0.936-1.834,1.277c-3.406,1.42-7.278,1.664-10.845,0.753c-3.42-0.863-6.524-3.188-7.999-6.433
	c-1.945-4.05-1.748-8.653-1.743-13.027c0.003-9.779-0.005-19.556,0.003-29.331c-2.631-0.006-5.258,0.015-7.889-0.006
	c-0.412,0.058-0.976-0.138-0.92-0.646c-0.053-2.456-0.037-4.916-0.01-7.369c-0.107-0.571,0.478-0.767,0.93-0.731
	c2.622-0.012,5.246-0.009,7.867,0.009C769.271,274.451,769.201,270.212,769.253,265.975z"/>
<path fill="#1F3992" stroke="#1F3992" stroke-width="2" stroke-miterlimit="10" d="M715.335,281.456
	c4.671-3.185,10.522-4.09,16.071-3.756c5.151,0.278,10.418,1.924,14.224,5.53c3.563,3.221,5.836,8.21,4.991,13.034
	c-3.355,0.159-6.723,0.058-10.084,0.058c-0.709,0.07-0.7-0.776-0.752-1.251c-0.168-2.691-1.963-5.007-4.114-6.49
	c-2.566-1.741-5.833-1.931-8.825-1.585c-2.199,0.239-4.456,1.064-5.903,2.812c-1.667,1.825-2.138,4.569-1.321,6.883
	c0.528,1.489,1.771,2.63,3.175,3.302c3.741,1.806,7.922,2.252,11.88,3.385c4.176,1.174,8.354,2.694,11.856,5.322
	c2.435,1.822,4.24,4.489,4.897,7.472c1.108,4.929-0.22,10.462-3.836,14.065c-3.955,4.129-9.699,6.037-15.296,6.42
	c-5.907,0.395-12.152-0.337-17.282-3.49c-4.011-2.533-7.375-6.463-8.36-11.191c-0.269-1.408-0.477-2.883-0.205-4.302
	c0.061-0.528,0.682-0.492,1.079-0.499c2.955,0.01,5.91,0.004,8.865,0.004c0.331-0.004,0.938,0.024,0.902,0.508
	c0.163,2.379,0.821,4.882,2.644,6.545c3.056,2.794,7.442,3.595,11.458,3.234c2.945-0.205,6.102-1.197,7.931-3.662
	c2.047-2.789,1.203-7.108-1.683-8.992c-4.138-2.714-9.213-3.107-13.84-4.537c-4.286-1.306-8.638-2.976-11.994-6.041
	c-3.518-3.229-4.613-8.451-3.554-12.997C709.144,287.167,711.946,283.756,715.335,281.456z"/>
<path fill="#1F3992" stroke="#1F3992" stroke-width="2" stroke-miterlimit="10" d="M814.893,281.597
	c3.715-2.637,8.268-4.035,12.82-3.958c5.254,0.015,10.736,1.263,14.869,4.667c3.955,3.264,6.41,8.057,7.48,13.015
	c1.072,4.609,0.777,9.369,0.793,14.062c0.049,0.612-0.58,0.829-1.082,0.762c-11.725,0-23.449-0.003-35.172,0
	c0.15,4.882,1.49,9.983,4.932,13.599c1.939,2.133,4.707,3.408,7.561,3.686c5.791,0.518,11.955-0.822,16.484-4.615
	c0.469-0.324,0.916-0.975,1.563-0.66c1.488,2.355,2.916,4.753,4.299,7.173c-2.934,3.136-6.941,5.099-11.016,6.292
	c-5.182,1.318-10.693,1.551-15.936,0.452c-5.1-1.085-9.801-3.942-13.063-8.017c-3.908-4.705-5.881-10.77-6.278-16.817
	c-0.306-5.509-0.199-11.181,1.722-16.423C806.758,289.522,810.32,284.851,814.893,281.597 M820.49,289.62
	c-3.15,2.934-4.895,7.102-5.484,11.311c8.17-0.006,16.344,0,24.514-0.002c0.135-3.986-0.918-8.214-3.795-11.107
	c-2.371-2.438-5.973-3.165-9.254-2.921C824.232,287.063,822.125,288.103,820.49,289.62z"/>
<path fill="#1F3992" stroke="#1F3992" stroke-width="2" stroke-miterlimit="10" d="M870.244,283.692
	c3.758-3.616,8.898-5.503,14.041-5.925c5.602-0.499,11.523,0.348,16.324,3.432c4.809,3.026,8.438,8.112,9.092,13.826
	c0.086,1.293,0.422,2.691-0.09,3.934c-0.428,0.27-0.967,0.138-1.434,0.181c-2.449-0.013-4.898-0.013-7.342,0
	c-0.455-0.048-1.055,0.106-1.355-0.33c-0.195-1.001-0.152-2.034-0.387-3.025c-1.047-4.589-5.18-8.286-9.859-8.806
	c-3.744-0.413-7.91,0.174-10.779,2.811c-2.195,2.032-3.4,4.889-4.262,7.7c-1.248,4.258-1.207,8.75-1.033,13.144
	c0.252,4.233,1.254,8.54,3.621,12.112c1.512,2.279,3.971,3.83,6.629,4.399c3.166,0.654,6.607,0.59,9.572-0.82
	c2.531-1.235,4.881-3.218,5.887-5.919c0.422-1.033,0.402-2.162,0.605-3.242c0.172-0.566,0.916-0.349,1.359-0.414
	c2.926,0.068,5.859-0.104,8.783,0.1c0.555,2.615-0.17,5.353-1.254,7.741c-2.125,4.294-5.961,7.546-10.172,9.7
	c-5.684,2.829-12.387,3.061-18.479,1.564c-4.756-1.168-9.109-3.975-12.01-7.942c-2.572-3.377-4.309-7.354-5.189-11.499
	c-0.965-4.205-0.896-8.552-0.766-12.837C862.135,296.242,864.877,288.833,870.244,283.692z"/>
<path fill="#1F3992" stroke="#1F3992" stroke-width="2" stroke-miterlimit="10" d="M679.483,278.88
	c0.418-0.278,0.954-0.177,1.431-0.214c3.068,0.046,6.139-0.049,9.207,0.043c0.521,0.037,0.606,0.593,0.579,1.01
	c0.012,18.157-0.009,36.317,0.012,54.477c-0.055,0.429,0.095,0.97-0.232,1.313c-0.395,0.241-0.888,0.147-1.319,0.184
	c-3.058-0.04-6.118,0.042-9.173-0.036c-0.615,0.021-0.667-0.717-0.646-1.159c0.009-17.745,0.006-35.489,0-53.233
	C679.373,280.471,679.235,279.645,679.483,278.88z"/>
<path fill="#1F3992" d="M544.458,357.716c1.548-1.672,4.083-1.938,6.2-1.441c2.059,0.462,3.775,2.361,3.701,4.527
	c-0.682,0.002-1.363,0-2.046,0.002c-0.128-0.67-0.195-1.4-0.679-1.927c-1.062-1.272-2.997-1.36-4.469-0.865
	c-1.535,0.464-2.196,2.726-0.884,3.784c1.985,1.56,4.854,1.284,6.748,3.031c1.921,1.495,1.896,4.836-0.199,6.166
	c-2.591,1.688-6.399,1.449-8.684-0.673c-0.845-0.749-1.123-1.887-1.187-2.97c0.682-0.01,1.368-0.013,2.049-0.013
	c0.147,0.755,0.291,1.6,0.942,2.104c1.41,1.146,3.545,1.248,5.151,0.459c1.144-0.551,1.545-2.107,0.875-3.172
	c-0.619-0.997-1.815-1.358-2.879-1.661c-1.698-0.429-3.496-0.96-4.735-2.279C543.075,361.416,543.143,359.052,544.458,357.716z"/>
<path fill="#1F3992" d="M565.763,356.323c0.722-0.027,1.443-0.037,2.168-0.037c0.003,5.182-0.012,10.367,0.006,15.549
	c-0.716,0.012-1.432,0.018-2.148,0.023C565.769,366.681,565.824,361.502,565.763,356.323z"/>
<path fill="#1F3992" d="M580.858,357.718c1.542-1.666,4.065-1.936,6.179-1.45c2.068,0.456,3.802,2.356,3.722,4.536
	c-0.682,0-1.367-0.002-2.049-0.002c-0.125-0.674-0.189-1.41-0.679-1.934c-1.123-1.309-3.171-1.389-4.674-0.764
	c-1.489,0.596-1.911,2.904-0.51,3.828c2.052,1.423,4.894,1.215,6.738,3.031c1.3,1.15,1.63,3.203,0.833,4.729
	c-0.802,1.417-2.426,2.144-3.987,2.321c-2.21,0.3-4.695-0.29-6.193-2.034c-0.643-0.725-0.799-1.706-0.863-2.636
	c0.679-0.004,1.358-0.004,2.038-0.004c0.137,0.835,0.36,1.744,1.116,2.242c1.419,1,3.432,1.082,4.974,0.318
	c1.211-0.578,1.573-2.27,0.774-3.328c-0.756-1.004-2.053-1.3-3.2-1.618c-1.502-0.376-3.034-0.921-4.169-2.016
	C579.494,361.587,579.494,359.101,580.858,357.718z"/>
<path fill="#1F3992" d="M600.544,356.292c4.029,0,8.054,0,12.083,0c0,0.561,0,1.121,0,1.684c-1.655,0-3.313-0.004-4.968,0
	c0.007,4.618-0.021,9.234,0.012,13.853c-0.724,0.028-1.453,0.028-2.174-0.009c0.039-4.613,0.005-9.229,0.015-13.844
	c-1.655-0.004-3.313,0-4.968,0C600.544,357.413,600.544,356.853,600.544,356.292z"/>
<path fill="#1F3992" d="M623.14,356.292c3.401-0.002,6.802,0.004,10.204-0.002c0.003,0.556,0.009,1.113,0.016,1.673
	c-2.704,0.027-5.408,0.005-8.116,0.013c0,1.67,0,3.337,0,5.007c2.368,0,4.738,0,7.106,0c0.007,0.554,0.012,1.104,0.024,1.661
	c-2.376,0.051-4.754,0.01-7.13,0.024c0,1.835-0.005,3.671,0.007,5.509c2.737-0.013,5.475-0.004,8.215-0.004
	c-0.002,0.558-0.002,1.117,0,1.68c-3.444,0.004-6.885,0.004-10.326,0C623.14,366.665,623.14,361.48,623.14,356.292z"/>
<path fill="#1F3992" d="M644.172,356.292c0.902,0,1.808-0.002,2.713,0c1.646,4.18,3.267,8.366,4.928,12.541
	c1.78-4.129,3.303-8.371,4.988-12.541c0.912-0.002,1.823,0,2.738,0c0.003,5.188,0.003,10.373,0,15.561c-0.716,0-1.429,0-2.142,0
	c-0.033-4.129,0.013-8.256,0.199-12.382c-1.771,4.096-3.33,8.283-5.071,12.394c-0.462-0.002-0.921-0.006-1.38,0
	c-1.709-4.116-3.343-8.268-5.016-12.4c0.08,4.131,0.253,8.26,0.18,12.393c-0.715-0.004-1.426-0.004-2.138-0.004
	C644.169,366.665,644.169,361.48,644.172,356.292z"/>
<path fill="#1F3992" d="M675.978,356.28c0.605,0.006,1.214,0.01,1.823,0.012c1.979,5.186,3.948,10.373,5.921,15.561
	c-0.731,0-1.462,0-2.192,0.004c-0.49-1.34-0.964-2.683-1.457-4.017c-2.153,0-4.307,0-6.46,0c-0.5,1.339-0.976,2.692-1.493,4.024
	c-0.722-0.008-1.443-0.012-2.163-0.015C671.946,366.653,673.953,361.462,675.978,356.28 M674.277,366.037
	c1.719,0.004,3.436,0.004,5.155,0c-0.851-2.345-1.695-4.694-2.555-7.038C676.002,361.343,675.145,363.692,674.277,366.037z"/>
<path fill="#1F3992" d="M695.896,356.503c2.368-0.852,5.463-0.596,7.143,1.469c0.7,0.771,0.933,1.814,1.009,2.826
	c-0.688,0.004-1.374,0.006-2.055,0.006c-0.131-0.831-0.33-1.729-1.021-2.277c-1.147-0.938-2.827-0.967-4.179-0.506
	c-1.318,0.45-2.037,2.219-1.193,3.39c0.814,1.037,2.171,1.358,3.377,1.712c1.569,0.4,3.208,0.995,4.273,2.279
	c1.376,1.646,1.074,4.454-0.786,5.613c-2.61,1.673-6.412,1.41-8.693-0.729c-0.823-0.748-1.083-1.869-1.132-2.936
	c0.68-0.01,1.362-0.01,2.044-0.006c0.131,0.734,0.266,1.553,0.883,2.055c1.398,1.178,3.536,1.297,5.154,0.526
	c1.261-0.569,1.631-2.341,0.78-3.401c-0.991-1.208-2.652-1.377-4.05-1.817c-1.712-0.522-3.648-1.452-4.206-3.306
	C692.596,359.36,693.958,357.194,695.896,356.503z"/>
<path fill="#1F3992" d="M729.105,356.277c3.411,0.034,6.822,0.006,10.232,0.015c-0.003,0.561-0.003,1.121-0.003,1.686
	c-2.701-0.006-5.398-0.002-8.1-0.002c-0.002,1.67-0.002,3.337,0,5.007c2.368,0,4.738-0.003,7.109,0c-0.003,0.56-0.003,1.119,0,1.686
	c-2.371,0-4.741-0.003-7.109,0c-0.006,1.832,0,3.664-0.002,5.499c2.737,0.01,5.478,0,8.221,0.006
	c-0.003,0.558-0.003,1.117-0.003,1.68c-3.453,0.004-6.906,0-10.36,0C729.1,366.662,729.066,361.468,729.105,356.277z"/>
<path fill="#1F3992" d="M750.12,356.292c0.911,0,1.826,0,2.741,0c1.65,4.191,3.284,8.391,4.939,12.582
	c1.729-4.164,3.309-8.385,4.971-12.574c0.902-0.008,1.805-0.01,2.713-0.014c0.016,5.188,0.003,10.379,0.006,15.566
	c-0.715,0-1.428,0-2.141,0c-0.049-4.176,0.049-8.348,0.241-12.52c-1.691,4.17-3.374,8.338-5.05,12.514
	c-0.482,0-0.961,0.006-1.438,0.012c-1.692-4.117-3.288-8.277-5.029-12.371c0.178,4.122,0.217,8.246,0.188,12.371
	c-0.719-0.006-1.436-0.012-2.15-0.023C750.132,366.655,750.114,361.474,750.12,356.292z"/>
<path fill="#1F3992" d="M777.648,356.292c2.014,0.004,4.025-0.006,6.042,0c1.22,0.004,2.502,0.254,3.487,1.021
	c2.449,1.82,2.227,6.231-0.541,7.642c-2.117,1.077-4.57,0.538-6.843,0.667c-0.007,2.077,0,4.153-0.003,6.23
	c-0.717,0-1.432,0-2.143,0C777.648,366.665,777.648,361.48,777.648,356.292 M779.8,357.972c-0.021,1.982,0.003,3.968-0.019,5.953
	c1.686-0.047,3.408,0.189,5.071-0.163c2.499-0.728,2.469-4.878-0.01-5.616C783.191,357.779,781.476,358.061,779.8,357.972z"/>
<path fill="#1F3992" d="M799.459,356.319c1.881-0.057,3.762-0.018,5.645-0.029c1.322,0,2.736,0.195,3.811,1.037
	c1.383,1.045,1.74,3.031,1.281,4.63c-0.303,1.04-1.209,1.701-2.059,2.279c0.707,0.358,1.445,0.796,1.777,1.563
	c0.945,1.912-0.225,4.307,1.227,6.053c-0.805-0.003-1.604-0.003-2.402,0.006c-0.986-1.605-0.172-3.578-0.801-5.268
	c-0.416-0.979-1.484-1.534-2.52-1.464c-1.268-0.024-2.53,0.009-3.794,0c0.003,2.231-0.015,4.468,0.009,6.701
	c-0.719,0.019-1.438,0.028-2.15,0.03C799.465,366.681,799.511,361.502,799.459,356.319 M801.624,357.978
	c-0.006,1.817,0,3.637-0.006,5.457c1.655-0.058,3.354,0.196,4.976-0.217c2.23-0.6,2.203-4.346,0.043-5.025
	C805.004,357.771,803.291,358.055,801.624,357.978z"/>
<path fill="#1F3992" d="M822.158,356.29c3.4,0.002,6.803,0.002,10.207,0.002c-0.006,0.561-0.01,1.123-0.01,1.686
	c-2.689-0.006-5.373-0.002-8.057,0c-0.006,1.668-0.006,3.335,0,5.005c2.367,0,4.738,0,7.109,0c-0.004,0.56-0.008,1.122-0.004,1.686
	c-2.371-0.003-4.738-0.003-7.109,0c-0.004,1.825,0.01,3.655-0.012,5.484c2.732,0.046,5.463,0.006,8.195,0.021
	c-0.004,0.558-0.004,1.117,0,1.68c-3.441,0.004-6.883,0.004-10.324,0C822.154,366.665,822.148,361.478,822.158,356.29z"/>
<path fill="#1F3992" d="M843.832,357.659c1.582-1.636,4.115-1.884,6.23-1.369c2.025,0.501,3.664,2.36,3.656,4.493
	c-0.691,0.015-1.377,0.021-2.063,0.024c-0.141-0.707-0.238-1.478-0.758-2.019c-1.061-1.169-2.869-1.242-4.289-0.821
	c-1.293,0.377-2.137,1.953-1.496,3.197c0.572,1.031,1.787,1.423,2.846,1.762c1.689,0.463,3.508,0.922,4.754,2.242
	c1.557,1.563,1.396,4.506-0.469,5.767c-2.578,1.743-6.387,1.522-8.719-0.558c-0.877-0.755-1.174-1.921-1.236-3.027
	c0.678-0.01,1.359-0.01,2.045-0.01c0.146,0.78,0.314,1.648,1.004,2.153c1.391,1.071,3.428,1.185,5,0.452
	c1.234-0.525,1.686-2.211,0.916-3.293c-0.754-1.084-2.127-1.389-3.316-1.717c-1.59-0.4-3.236-0.997-4.344-2.263
	C842.379,361.267,842.52,358.956,843.832,357.659z"/>
<path fill="#1F3992" d="M869.313,356.292c0.609-0.002,1.221-0.002,1.838-0.002c1.98,5.184,3.951,10.375,5.922,15.563
	c-0.734,0-1.465,0-2.193,0c-0.473-1.324-0.982-2.633-1.4-3.973c-2.176-0.083-4.348-0.025-6.518-0.037
	c-0.502,1.346-0.961,2.703-1.508,4.031c-0.719-0.018-1.439-0.024-2.152-0.024C865.299,366.662,867.307,361.478,869.313,356.292
	 M870.172,359.169c-0.871,2.28-1.695,4.58-2.543,6.872c1.717,0,3.436,0,5.154-0.004C871.885,363.762,871.246,361.37,870.172,359.169
	z"/>
<path fill="#1F3992" d="M886.848,356.292c1.916,0.004,3.834-0.006,5.752,0c1.369,0.004,2.848,0.26,3.898,1.212
	c1.197,1.077,1.484,2.888,1.094,4.396c-0.303,1.073-1.221,1.799-2.156,2.316c0.619,0.317,1.309,0.632,1.672,1.271
	c1.246,1.937-0.107,4.521,1.398,6.365c-0.805-0.078-1.725,0.202-2.453-0.168c-0.766-1.242-0.361-2.792-0.514-4.169
	c-0.049-1.208-1.064-2.318-2.295-2.362c-1.416-0.079-2.838-0.006-4.254-0.026c0,2.241,0,4.483,0,6.729
	c-0.719-0.004-1.432-0.007-2.143-0.007C886.848,366.665,886.848,361.478,886.848,356.292 M888.992,357.976
	c-0.006,1.819-0.002,3.643,0,5.465c1.695-0.082,3.447,0.221,5.102-0.266c2.201-0.73,1.992-4.576-0.299-5.047
	C892.217,357.807,890.59,358.046,888.992,357.976z"/>
<path fill="#1F3992" d="M909.637,356.292c0.709-0.002,1.426,0,2.141,0c0,5.188,0,10.373,0,15.561c-0.715,0-1.432,0-2.141,0
	C909.635,366.665,909.635,361.48,909.637,356.292z"/>
<path fill="#1F3992" d="M928.371,356.292c0.605-0.002,1.219-0.002,1.836,0c1.979,5.182,3.949,10.373,5.918,15.561
	c-0.734,0-1.463,0-2.193,0c-0.473-1.324-0.979-2.641-1.402-3.979c-2.176-0.07-4.35-0.024-6.521-0.024
	c-0.49,1.344-0.961,2.692-1.49,4.02c-0.725-0.012-1.449-0.019-2.166-0.019C924.359,366.665,926.355,361.474,928.371,356.292
	 M929.17,359.343c-0.869,2.217-1.648,4.469-2.486,6.698c1.715,0,3.432,0,5.15,0c-0.813-2.245-1.602-4.497-2.447-6.727
	C929.332,359.321,929.225,359.333,929.17,359.343z"/>
<path fill="#1F3992" d="M946.043,356.29c0.707,0,1.418,0.002,2.135,0.002c0,5.188,0,10.373,0,15.561c-0.719,0-1.432,0-2.141,0
	C946.037,366.665,946.027,361.478,946.043,356.29z"/>
<path fill="#1F3992" d="M962.27,356.788c2.512-1.272,6.115-1.004,7.889,1.379c0.607,0.741,0.768,1.705,0.852,2.635
	c-0.689,0.002-1.375,0.002-2.053,0.002c-0.15-0.748-0.264-1.568-0.852-2.117c-1.109-1.091-2.902-1.143-4.303-0.678
	c-1.295,0.431-2.059,2.098-1.311,3.304c0.77,1.095,2.164,1.431,3.381,1.792c1.6,0.406,3.281,0.997,4.357,2.324
	c1.359,1.634,1.057,4.408-0.775,5.568c-2.543,1.65-6.223,1.439-8.531-0.533c-0.928-0.759-1.291-1.957-1.322-3.113
	c0.674-0.01,1.352-0.013,2.035-0.021c0.141,0.755,0.291,1.6,0.936,2.107c1.416,1.15,3.559,1.266,5.166,0.456
	c1.205-0.582,1.566-2.272,0.762-3.322c-0.891-1.142-2.41-1.38-3.713-1.759c-1.717-0.472-3.6-1.272-4.414-2.967
	C959.51,359.981,960.469,357.679,962.27,356.788z"/>
</svg>
